<svg width="40" height="40" viewBox="0 0 40 40" fill="none" xmlns="http://www.w3.org/2000/svg">
<g id="bi:arrow-right-short">
<g id="Group">
<path id="Vector" fill-rule="evenodd" clip-rule="evenodd" d="M10.0001 20C10.0001 19.6685 10.1318 19.3505 10.3662 19.1161C10.6006 18.8817 10.9185 18.75 11.2501 18.75H25.7326L20.3651 13.385C20.1303 13.1503 19.9985 12.8319 19.9985 12.5C19.9985 12.1681 20.1303 11.8497 20.3651 11.615C20.5998 11.3803 20.9181 11.2484 21.2501 11.2484C21.582 11.2484 21.9003 11.3803 22.1351 11.615L29.6351 19.115C29.7515 19.2311 29.8438 19.369 29.9068 19.5209C29.9699 19.6728 30.0023 19.8356 30.0023 20C30.0023 20.1644 29.9699 20.3272 29.9068 20.4791C29.8438 20.6309 29.7515 20.7689 29.6351 20.885L22.1351 28.385C21.9003 28.6197 21.582 28.7516 21.2501 28.7516C20.9181 28.7516 20.5998 28.6197 20.3651 28.385C20.1303 28.1503 19.9985 27.8319 19.9985 27.5C19.9985 27.1681 20.1303 26.8497 20.3651 26.615L25.7326 21.25H11.2501C10.9185 21.25 10.6006 21.1183 10.3662 20.8839C10.1318 20.6495 10.0001 20.3315 10.0001 20Z" fill="#5D5FEF"/>
</g>
</g>
</svg>
