<svg width="25" height="24" viewBox="0 0 25 24" fill="none" xmlns="http://www.w3.org/2000/svg">
<g id="bxs:star-half">
<path id="Vector" d="M5.35837 20.775C5.32411 20.9217 5.32349 21.0742 5.35657 21.2212C5.38964 21.3681 5.45555 21.5057 5.54935 21.6235C5.64315 21.7414 5.76241 21.8365 5.89819 21.9017C6.03397 21.9669 6.18275 22.0005 6.33337 22C6.5309 22.0001 6.72402 21.9416 6.88837 21.832L12.3334 18.202L17.7784 21.832C17.9487 21.9451 18.1496 22.0033 18.354 21.9988C18.5584 21.9944 18.7565 21.9274 18.9218 21.8069C19.087 21.6865 19.2113 21.5183 19.2781 21.3251C19.3449 21.1318 19.3509 20.9228 19.2954 20.726L17.4664 14.326L22.0024 10.244C22.1476 10.1132 22.2514 9.94268 22.3008 9.75353C22.3502 9.56437 22.343 9.3649 22.2803 9.17976C22.2175 8.99462 22.1018 8.83194 21.9476 8.71184C21.7933 8.59174 21.6073 8.51949 21.4124 8.50401L15.7114 8.05001L13.2444 2.58901C13.1658 2.41313 13.038 2.26374 12.8764 2.15887C12.7148 2.05401 12.5263 1.99815 12.3337 1.99805C12.1411 1.99794 11.9525 2.05359 11.7908 2.15828C11.6291 2.26296 11.5011 2.41221 11.4224 2.58801L8.95537 8.05001L3.25437 8.50301C3.06283 8.51819 2.87971 8.58822 2.72692 8.70475C2.57414 8.82127 2.45816 8.97934 2.39286 9.16004C2.32756 9.34075 2.31571 9.53645 2.35871 9.72372C2.40172 9.91099 2.49777 10.0819 2.63537 10.216L6.84937 14.323L5.35837 20.775ZM12.3334 5.42901L14.3754 9.95001L14.9634 9.99701H14.9644L18.9364 10.312L15.6654 13.256L15.6644 13.258L15.2014 13.674L15.3724 14.271V14.274L16.6254 18.659L12.3334 15.798V5.42901Z" fill="#515151"/>
</g>
</svg>
