<svg width="25" height="24" viewBox="0 0 25 24" fill="none" xmlns="http://www.w3.org/2000/svg">
<g id="ant-design:star-outlined">
<path id="Vector" d="M21.617 8.27578L15.6662 7.41093L13.006 2.01797C12.9334 1.87031 12.8138 1.75078 12.6662 1.67812C12.2959 1.49531 11.8459 1.64765 11.6607 2.01797L9.00056 7.41093L3.04978 8.27578C2.88572 8.29922 2.73572 8.37656 2.62087 8.49375C2.48203 8.63645 2.40553 8.82843 2.40816 9.02752C2.4108 9.2266 2.49236 9.41649 2.63493 9.55547L6.9404 13.7531L5.92322 19.6805C5.89936 19.8183 5.91462 19.9602 5.96726 20.0898C6.0199 20.2195 6.10781 20.3318 6.22103 20.414C6.33425 20.4962 6.46825 20.5451 6.60782 20.555C6.7474 20.565 6.88697 20.5356 7.01072 20.4703L12.3334 17.6719L17.656 20.4703C17.8013 20.5477 17.9701 20.5734 18.1318 20.5453C18.5396 20.475 18.8138 20.0883 18.7435 19.6805L17.7263 13.7531L22.0318 9.55547C22.149 9.44062 22.2263 9.29062 22.2498 9.12656C22.3131 8.7164 22.0271 8.33672 21.617 8.27578ZM15.9146 13.1625L16.7607 18.0914L12.3334 15.7664L7.90603 18.0937L8.75212 13.1648L5.17087 9.67265L10.1209 8.95312L12.3334 4.46953L14.5459 8.95312L19.4959 9.67265L15.9146 13.1625Z" fill="#515151"/>
</g>
</svg>
